<svg width="60" height="60" viewBox="0 0 60 60" fill="none" xmlns="http://www.w3.org/2000/svg">
<g clip-path="url(#clip0_25_263)">
<path d="M47.88 0H12.12C5.4225 0 0 5.4225 0 12.12V47.8875C0 54.5775 5.4225 60 12.12 60H47.8875C54.5775 60 60.0075 54.5775 60.0075 47.88V12.12C60 5.4225 54.5775 0 47.88 0Z" fill="url(#paint0_linear_25_263)"/>
<path d="M29.745 13.785L30.96 11.685C31.71 10.3725 33.3825 9.92999 34.695 10.68C36.0075 11.43 36.45 13.1025 35.7 14.415L23.9925 34.68H32.46C35.205 34.68 36.7425 37.905 35.55 40.14H10.725C9.21 40.14 7.995 38.925 7.995 37.41C7.995 35.895 9.21 34.68 10.725 34.68H17.685L26.595 19.2375L23.8125 14.4075C23.0625 13.095 23.505 11.4375 24.8175 10.6725C26.13 9.92249 27.7875 10.365 28.5525 11.6775L29.745 13.785ZM19.215 42.9525L16.59 47.505C15.84 48.8175 14.1675 49.26 12.855 48.51C11.5425 47.76 11.1 46.0875 11.85 44.775L13.8 41.4C16.005 40.7175 17.7975 41.2425 19.215 42.9525ZM41.82 34.695H48.9225C50.4375 34.695 51.6525 35.91 51.6525 37.425C51.6525 38.94 50.4375 40.155 48.9225 40.155H44.9775L47.64 44.775C48.39 46.0875 47.9475 47.745 46.635 48.51C45.3225 49.26 43.665 48.8175 42.9 47.505C38.415 39.7275 35.0475 33.9075 32.8125 30.03C30.525 26.085 32.16 22.125 33.7725 20.7825C35.565 23.8575 38.2425 28.5 41.82 34.695Z" fill="white"/>
</g>
<defs>
<linearGradient id="paint0_linear_25_263" x1="30.0037" y1="0" x2="30.0037" y2="60" gradientUnits="userSpaceOnUse">
<stop stop-color="#18BFFB"/>
<stop offset="1" stop-color="#2072F3"/>
</linearGradient>
<clipPath id="clip0_25_263">
<rect width="60" height="60" fill="white"/>
</clipPath>
</defs>
</svg>
