<svg width="13" height="12" viewBox="0 0 13 12" fill="none" xmlns="http://www.w3.org/2000/svg">
<path fill-rule="evenodd" clip-rule="evenodd" d="M6.06836 12C7.65966 12 9.18578 11.3679 10.311 10.2426C11.4362 9.11742 12.0684 7.5913 12.0684 6C12.0684 4.4087 11.4362 2.88258 10.311 1.75736C9.18578 0.632141 7.65966 0 6.06836 0C4.47706 0 2.95094 0.632141 1.82572 1.75736C0.700501 2.88258 0.0683594 4.4087 0.0683594 6C0.0683594 7.5913 0.700501 9.11742 1.82572 10.2426C2.95094 11.3679 4.47706 12 6.06836 12ZM8.84861 5.03025C8.98523 4.8888 9.06082 4.69935 9.05911 4.5027C9.05741 4.30605 8.97853 4.11794 8.83947 3.97889C8.70042 3.83983 8.51231 3.76095 8.31566 3.75924C8.11901 3.75754 7.92956 3.83313 7.78811 3.96975L5.31836 6.4395L4.34861 5.46975C4.20716 5.33313 4.01771 5.25754 3.82106 5.25924C3.62441 5.26095 3.4363 5.33983 3.29725 5.47889C3.15819 5.61794 3.07931 5.80605 3.0776 6.0027C3.07589 6.19935 3.15149 6.3888 3.28811 6.53025L4.78811 8.03025C4.92876 8.17085 5.11949 8.24984 5.31836 8.24984C5.51723 8.24984 5.70796 8.17085 5.84861 8.03025L8.84861 5.03025Z" fill="#8300B6"/>
</svg>
