<svg width="36" height="36" viewBox="0 0 36 36" fill="none" xmlns="http://www.w3.org/2000/svg">
<path d="M5.14286 24.4286V23.1429H2.57143V24.4286C2.57143 26.8155 3.51964 29.1047 5.20747 30.7925C6.89529 32.4804 9.18448 33.4286 11.5714 33.4286H15.4286V30.8571H11.5714C9.86646 30.8571 8.23133 30.1798 7.02574 28.9743C5.82015 27.7687 5.14286 26.1335 5.14286 24.4286ZM28.2857 11.5714V12.8571H30.8571V11.5714C30.8571 9.18448 29.9089 6.8953 28.2211 5.20747C26.5333 3.51964 24.2441 2.57143 21.8571 2.57143H18V5.14286H21.8571C22.7014 5.14286 23.5373 5.30914 24.3172 5.6322C25.0972 5.95527 25.8059 6.4288 26.4028 7.02574C26.9998 7.62269 27.4733 8.33137 27.7964 9.11132C28.1194 9.89127 28.2857 10.7272 28.2857 11.5714ZM11.5714 11.5714H3.85714C2.83416 11.5714 1.85309 11.9778 1.12973 12.7012C0.406376 13.4245 0 14.4056 0 15.4286V18H2.57143V15.4286C2.57143 15.0876 2.70689 14.7606 2.94801 14.5194C3.18912 14.2783 3.51615 14.1429 3.85714 14.1429H11.5714C11.9124 14.1429 12.2394 14.2783 12.4806 14.5194C12.7217 14.7606 12.8571 15.0876 12.8571 15.4286V18H15.4286V15.4286C15.4286 14.4056 15.0222 13.4245 14.2988 12.7012C13.5755 11.9778 12.5944 11.5714 11.5714 11.5714ZM7.71428 10.2857C8.73145 10.2857 9.72576 9.98409 10.5715 9.41899C11.4172 8.85388 12.0764 8.05068 12.4657 7.11094C12.8549 6.17121 12.9568 5.13715 12.7583 4.13954C12.5599 3.14192 12.0701 2.22555 11.3508 1.50631C10.6316 0.787069 9.71522 0.297259 8.71761 0.0988209C7.71999 -0.0996174 6.68593 0.0022283 5.7462 0.391479C4.80646 0.78073 4.00326 1.4399 3.43816 2.28564C2.87305 3.13138 2.57143 4.1257 2.57143 5.14286C2.57143 6.50683 3.11326 7.81494 4.07774 8.77941C5.04221 9.74388 6.35031 10.2857 7.71428 10.2857ZM7.71428 2.57143C8.22287 2.57143 8.72002 2.72224 9.14289 3.00479C9.56576 3.28735 9.89535 3.68895 10.09 4.15882C10.2846 4.62868 10.3355 5.14571 10.2363 5.64452C10.1371 6.14333 9.89218 6.60151 9.53256 6.96113C9.17294 7.32075 8.71475 7.56566 8.21595 7.66488C7.71714 7.7641 7.20011 7.71317 6.73024 7.51855C6.26037 7.32392 5.85877 6.99434 5.57622 6.57147C5.29367 6.1486 5.14286 5.65144 5.14286 5.14286C5.14286 4.46087 5.41377 3.80682 5.89601 3.32458C6.37825 2.84235 7.0323 2.57143 7.71428 2.57143ZM32.1429 29.5714H24.4286C23.4056 29.5714 22.4245 29.9778 21.7012 30.7012C20.9778 31.4245 20.5714 32.4056 20.5714 33.4286V36H23.1429V33.4286C23.1429 33.0876 23.2783 32.7606 23.5194 32.5194C23.7605 32.2783 24.0876 32.1429 24.4286 32.1429H32.1429C32.4838 32.1429 32.8109 32.2783 33.052 32.5194C33.2931 32.7606 33.4286 33.0876 33.4286 33.4286V36H36V33.4286C36 32.4056 35.5936 31.4245 34.8703 30.7012C34.1469 29.9778 33.1658 29.5714 32.1429 29.5714ZM23.1429 23.1429C23.1429 24.16 23.4445 25.1543 24.0096 26.0001C24.5747 26.8458 25.3779 27.505 26.3176 27.8942C27.2574 28.2835 28.2914 28.3853 29.289 28.1869C30.2866 27.9885 31.203 27.4986 31.9223 26.7794C32.6415 26.0602 33.1313 25.1438 33.3297 24.1462C33.5282 23.1486 33.4263 22.1145 33.0371 21.1748C32.6478 20.235 31.9887 19.4318 31.1429 18.8667C30.2972 18.3016 29.3029 18 28.2857 18C26.9217 18 25.6136 18.5418 24.6492 19.5063C23.6847 20.4708 23.1429 21.7789 23.1429 23.1429ZM30.8571 23.1429C30.8571 23.6514 30.7063 24.1486 30.4238 24.5715C30.1412 24.9943 29.7396 25.3239 29.2698 25.5185C28.7999 25.7132 28.2829 25.7641 27.7841 25.6649C27.2852 25.5657 26.8271 25.3208 26.4674 24.9611C26.1078 24.6015 25.8629 24.1433 25.7637 23.6445C25.6645 23.1457 25.7154 22.6287 25.91 22.1588C26.1046 21.6889 26.4342 21.2873 26.8571 21.0048C27.28 20.7222 27.7771 20.5714 28.2857 20.5714C28.9677 20.5714 29.6217 20.8423 30.104 21.3246C30.5862 21.8068 30.8571 22.4609 30.8571 23.1429Z" fill="black"/>
</svg>
