<svg width="36" height="36" viewBox="0 0 36 36" fill="none" xmlns="http://www.w3.org/2000/svg">
<path d="M31.5394 0C30.3905 0 29.2611 0.450563 28.3945 1.31564L13.5169 16.1452L13.1865 16.4756L13.0964 16.9457L12.0601 22.2023L11.5945 24.407L13.7977 23.9414L19.0543 22.9051L19.5244 22.815L19.8548 22.4846L34.6844 7.60701C35.3054 6.98374 35.7282 6.19061 35.8993 5.32752C36.0704 4.46444 35.9823 3.57001 35.646 2.75692C35.3097 1.94382 34.7403 1.24844 34.0096 0.758379C33.2788 0.268313 32.4193 0.00548419 31.5394 0.00300354V0ZM31.5394 2.91364C31.8924 2.91364 32.2363 3.09387 32.5727 3.42879C33.2426 4.09862 33.2426 4.82253 32.5727 5.49387L18.0225 20.0411L15.4393 20.5577L15.9574 17.9745L30.5076 3.42428C30.8426 3.08936 31.1865 2.90914 31.5394 2.90914V2.91364ZM0 5.96245V36H30.0375V16.1932L27.0338 19.197V32.9962H3.00375V8.96621H16.803L19.8068 5.96245H0Z" fill="black"/>
</svg>
