<svg width="36" height="36" viewBox="0 0 36 36" fill="none" xmlns="http://www.w3.org/2000/svg">
<path d="M18 36C13.2261 36 8.64773 34.1036 5.27208 30.7279C1.89642 27.3523 0 22.7739 0 18C0 13.2261 1.89642 8.64773 5.27208 5.27208C8.64773 1.89642 13.2261 0 18 0C22.7739 0 27.3523 1.89642 30.7279 5.27208C34.1036 8.64773 36 13.2261 36 18C36 22.7739 34.1036 27.3523 30.7279 30.7279C27.3523 34.1036 22.7739 36 18 36ZM18 32.4C21.8191 32.4 25.4818 30.8829 28.1823 28.1823C30.8829 25.4818 32.4 21.8191 32.4 18C32.4 14.1809 30.8829 10.5182 28.1823 7.81766C25.4818 5.11714 21.8191 3.6 18 3.6C14.1809 3.6 10.5182 5.11714 7.81766 7.81766C5.11714 10.5182 3.6 14.1809 3.6 18C3.6 21.8191 5.11714 25.4818 7.81766 28.1823C10.5182 30.8829 14.1809 32.4 18 32.4ZM16.2 18.738V7.2H19.8V17.262L26.91 24.372L24.372 26.91L16.2 18.738Z" fill="black"/>
</svg>
