<svg width="60" height="60" viewBox="0 0 60 60" fill="none" xmlns="http://www.w3.org/2000/svg">
<g clip-path="url(#clip0_25_239)">
<path d="M60 30C60 13.4316 46.5684 0 30 0C13.4316 0 0 13.4313 0 30C0 44.9738 10.9706 57.3851 25.3125 59.6355V38.6719H17.6953V30H25.3125V23.3906C25.3125 15.8719 29.7914 11.7188 36.6438 11.7188C39.9263 11.7188 43.3594 12.3047 43.3594 12.3047V19.6875H39.5766C35.8495 19.6875 34.6875 22.0001 34.6875 24.3727V30H43.0078L41.6777 38.6719H34.6875V59.6355C49.0294 57.3851 60 44.974 60 30Z" fill="#1877F2"/>
<path d="M41.6777 38.6719L43.0078 30H34.6875V24.3727C34.6875 21.9998 35.8498 19.6875 39.5766 19.6875H43.3594V12.3047C43.3594 12.3047 39.9263 11.7188 36.6438 11.7188C29.7914 11.7188 25.3125 15.8719 25.3125 23.3906V30H17.6953V38.6719H25.3125V59.6355C26.8632 59.8786 28.4304 60.0004 30 60C31.5696 60.0005 33.1368 59.8786 34.6875 59.6355V38.6719H41.6777Z" fill="white"/>
</g>
<defs>
<clipPath id="clip0_25_239">
<rect width="60" height="60" fill="white"/>
</clipPath>
</defs>
</svg>
