<svg width="36" height="36" viewBox="0 0 36 36" fill="none" xmlns="http://www.w3.org/2000/svg">
<path d="M33.4716 21.712L14.2718 2.5122C11.0719 -0.815754 5.82392 -0.815754 2.49597 2.3842C-0.831989 5.58416 -0.831989 10.9601 2.49597 14.1601L2.62396 14.288L6.20792 18L7.99989 16.208L4.28794 12.4961C2.11197 10.3201 2.11197 6.60815 4.28794 4.43218C6.46391 2.25621 10.1759 2.12821 12.3518 4.30418L12.4798 4.43218L31.5516 23.5039C33.8556 25.6799 33.8556 29.3919 31.6796 31.5678C29.5036 33.8718 25.7917 33.8718 23.6157 31.6958L23.4877 31.5678L14.0158 22.0959C12.7358 20.816 12.8638 18.768 14.0158 17.616C15.2958 16.464 17.2158 16.464 18.4958 17.616L23.7437 22.8639L25.5357 21.072L20.1597 15.696C17.8558 13.5201 14.2718 13.6481 12.0958 15.952C10.0479 18.128 10.0479 21.584 12.0958 23.8879L21.6957 33.4878C24.8957 36.8158 30.1436 36.8158 33.4716 33.6158C36.7995 30.4158 36.7995 25.0399 33.4716 21.712Z" fill="black"/>
</svg>
