<svg width="55" height="60" viewBox="0 0 55 60" fill="none" xmlns="http://www.w3.org/2000/svg">
<path d="M25.3943 28.6576L0.225143 55.027C0.507759 56.0287 1.01566 56.9525 1.71002 57.7278C2.40438 58.5031 3.26681 59.1094 4.2314 59.5003C5.19598 59.8912 6.23716 60.0563 7.27537 59.9832C8.31357 59.91 9.3213 59.6004 10.2215 59.0781L38.5415 42.9488L25.3943 28.6576Z" fill="#EA4335"/>
<path d="M50.8447 24.175L38.5978 17.1606L24.8129 29.2576L38.654 42.9112L50.8072 35.9718C51.8839 35.4081 52.7858 34.5604 53.415 33.5207C54.0443 32.4809 54.3769 31.2888 54.3769 30.0734C54.3769 28.8581 54.0443 27.6659 53.415 26.6262C52.7858 25.5864 51.8839 24.7387 50.8072 24.175H50.8447Z" fill="#FBBC04"/>
<path d="M0.225133 4.98865C0.0729911 5.55109 -0.00270905 6.13145 7.4029e-05 6.7141V53.3013C0.00159577 53.8837 0.077223 54.4635 0.225133 55.0268L26.257 29.3325L0.225133 4.98865Z" fill="#4285F4"/>
<path d="M25.5818 30.0079L38.5977 17.1608L10.3153 0.956515C9.2513 0.333364 8.04116 0.00332684 6.80812 1.34138e-05C5.31895 -0.00293769 3.86965 0.481129 2.68115 1.37843C1.49266 2.27572 0.630165 3.53703 0.225143 4.97007L25.5818 30.0079Z" fill="#34A853"/>
</svg>
