<svg width="37" height="37" viewBox="0 0 37 37" fill="none" xmlns="http://www.w3.org/2000/svg">
<path d="M34.6935 0.546326L23.3235 4.81588L27.404 7.38841C20.1146 16.5678 9.56989 22.2219 0.660522 24.3741L3.18446 28.9714C13.1953 25.7085 23.794 19.8229 30.6207 9.42483L33.7293 11.3841L34.6935 0.546326ZM35.2875 9.54825L34.9172 13.7754L30.9601 11.2761C30.8212 11.4844 30.6747 11.685 30.5281 11.8932V36.5463H36.5448V9.54825H35.2875ZM23.6706 19.4218C22.6909 20.2703 21.6804 21.0726 20.6545 21.8285V36.5463H26.6712V19.4218H23.6706ZM14.1287 25.9014C13.0179 26.4876 11.9071 27.0276 10.7809 27.5367V36.5463H16.7977V25.9014H14.1287ZM0.907362 29.2954V36.5463H6.92407V29.2954H6.48593C5.34276 29.7197 4.20036 30.1131 3.06489 30.4756L2.5203 30.6453L1.77979 29.2954H0.907362Z" fill="black"/>
</svg>
