<svg width="45" height="37" viewBox="0 0 45 37" fill="none" xmlns="http://www.w3.org/2000/svg">
<path d="M15.108 16.9515C16.7113 17.8147 17.92 19.0143 18.7341 20.5504C19.5482 22.0864 19.876 23.8513 19.7174 25.845C19.4901 28.7026 18.408 30.9573 16.4709 32.6089C14.5392 34.194 12.1777 34.8756 9.38652 34.6536C6.59534 34.4317 4.3407 33.3495 2.62262 31.4072C0.970998 29.4701 0.256182 27.106 0.478174 24.3148C0.583885 22.9857 0.855737 21.6698 1.29373 20.367C1.73173 19.0643 2.62132 17.1288 3.96251 14.5604L10.8859 0.665527L20.7548 1.45043L15.108 16.9515ZM38.6337 18.8226C40.237 19.6858 41.4457 20.8854 42.2598 22.4214C43.0739 23.9575 43.4017 25.7224 43.2431 27.7161C43.0159 30.5737 41.9337 32.8283 39.9967 34.48C38.0649 36.0651 35.7034 36.7467 32.9122 36.5247C30.121 36.3027 27.8664 35.2206 26.1483 33.2782C24.4967 31.3412 23.7819 28.9771 24.0039 26.1859C24.1096 24.8568 24.3815 23.5408 24.8194 22.2381C25.2574 20.9354 26.147 18.9999 27.4882 16.4314L34.4116 2.53661L44.2805 3.32151L38.6337 18.8226Z" fill="black"/>
</svg>
