<svg width="35" height="38" viewBox="0 0 35 38" fill="none" xmlns="http://www.w3.org/2000/svg">
<path d="M32.4941 30.4941C32.4941 30.4941 27.4118 26.2588 27.4118 14.4C27.4118 8.78654 22.8605 4.23529 17.2471 4.23529C15.0955 4.23529 13.0999 4.90447 11.4574 6.04461M22.3294 30.4941H2C2 30.4941 6.71812 26.5629 7.06202 15.6706" stroke="black" stroke-width="4" stroke-linecap="round" stroke-linejoin="round"/>
<path d="M12.1647 30.4941H22.3294C22.3294 31.8421 21.794 33.1348 20.8409 34.0879C19.8877 35.041 18.595 35.5765 17.2471 35.5765C15.8992 35.5765 14.6064 35.041 13.6533 34.0879C12.7002 33.1348 12.1647 31.8421 12.1647 30.4941Z" stroke="black" stroke-width="4"/>
<path fill-rule="evenodd" clip-rule="evenodd" d="M17.2471 0C16.3484 0 15.4866 0.356974 14.8512 0.992391C14.2158 1.62781 13.8588 2.48962 13.8588 3.38824H20.6353C20.6353 2.48962 20.2783 1.62781 19.6429 0.992391C19.0075 0.356974 18.1457 0 17.2471 0Z" fill="black"/>
<path d="M2.84705 3.81177L31.647 36" stroke="black" stroke-width="4" stroke-linecap="round" stroke-linejoin="round"/>
</svg>
