<svg width="60" height="50" viewBox="0 0 60 50" fill="none" xmlns="http://www.w3.org/2000/svg">
<path d="M53.8575 12.7599C53.8941 13.2892 53.8941 13.8179 53.8941 14.3518C53.8941 30.6174 41.5111 49.3768 18.8691 49.3768V49.3674C12.18 49.3768 5.62965 47.4609 0 43.8484C0.972656 43.9656 1.95 44.0242 2.92969 44.0265C8.47365 44.0309 13.8581 42.1715 18.218 38.747C15.6492 38.6984 13.1598 37.8484 11.0979 36.3157C9.0359 34.7829 7.50446 32.6442 6.71766 30.1984C8.56313 30.5546 10.4644 30.481 12.2756 29.986C6.5325 28.8259 2.40094 23.7803 2.40094 17.9204V17.7643C4.11296 18.7181 6.02908 19.2465 7.98797 19.3051C2.57812 15.6901 0.911719 8.49432 4.17797 2.86885C7.26839 6.67166 11.1242 9.78186 15.4949 11.9974C19.8656 14.213 24.6536 15.4844 29.5477 15.729C29.0598 13.6284 29.132 11.4366 29.757 9.37267C30.3821 7.30876 31.538 5.4451 33.1092 3.96807C38.0672 -0.692712 45.8648 -0.453649 50.5252 4.50198C53.282 3.95763 55.9257 2.94688 58.3425 1.51323C57.4235 4.36355 55.5005 6.78308 52.9312 8.32182C55.3714 8.03411 57.7544 7.3807 60 6.38354C58.348 8.85742 56.2679 11.0167 53.8575 12.7599Z" fill="#1D9BF0"/>
</svg>
